// Generated gmsh file

// Points

Point(1) = {0, 0, 0.1524, 0.09525};
Point(2) = {0.762, 0, 0.1524, 0.09525};
Point(3) = {0.762, 0.381, 0.1524, 0.09525};
Point(4) = {0, 0.381, 0.1524, 0.09525};
Point(5) = {0, 0.381, 0.2032, 0.09525};
Point(6) = {0.762, 0.381, 0.2032, 0.09525};
Point(7) = {0.762, 0, 0.2032, 0.09525};
Point(8) = {0, 0, 0.2032, 0.09525};
Point(9) = {0, 0, 0, 0.047625};
Point(10) = {0.762, 0, 0, 0.047625};
Point(11) = {0.762, 0.381, 0, 0.047625};
Point(12) = {0, 0.381, 0, 0.047625};
Point(13) = {0, 0.381, 0.0508, 0.047625};
Point(14) = {0.762, 0.381, 0.0508, 0.047625};
Point(15) = {0.762, 0, 0.0508, 0.047625};
Point(16) = {0, 0, 0.0508, 0.047625};
Point(17) = {0.1905, 0, 0.1016, 0.005953125};
Point(18) = {0.5715, 0, 0.1016, 0.005953125};
Point(19) = {0.5715, 0.1905, 0.1016, 0.005953125};
Point(20) = {0.1905, 0.1905, 0.1016, 0.005953125};
Point(21) = {0.1905, 0.1905, 0.1524, 0.005953125};
Point(22) = {0.5715, 0.1905, 0.1524, 0.005953125};
Point(23) = {0.5715, 0, 0.1524, 0.005953125};
Point(24) = {0.1905, 0, 0.1524, 0.005953125};
Point(25) = {0.1905, 0, 0.0508, 0.005953125};
Point(26) = {0.5715, 0, 0.0508, 0.005953125};
Point(27) = {0.5715, 0.1905, 0.0508, 0.005953125};
Point(28) = {0.1905, 0.1905, 0.0508, 0.005953125};
Point(29) = {0, 0.1905, 0.1016, 0.047625};
Point(30) = {0.762, 0.1905, 0.1016, 0.047625};
Point(31) = {0.762, 0.381, 0.1016, 0.047625};
Point(32) = {0, 0.381, 0.1016, 0.047625};
Point(33) = {0.762, 0.1905, 0.1524, 0.09525};
Point(34) = {0, 0.1905, 0.1524, 0.09525};
Point(35) = {0, 0.1905, 0.0508, 0.047625};
Point(36) = {0.762, 0.1905, 0.0508, 0.047625};
Point(37) = {0, 0, 0.1016, 0.047625};
Point(38) = {0.762, 0, 0.1016, 0.047625};

// Lines

Line(1) = {1, 2};
Line(2) = {2, 3};
Line(3) = {3, 4};
Line(4) = {4, 1};
Line(5) = {5, 6};
Line(6) = {6, 7};
Line(7) = {7, 8};
Line(8) = {8, 5};
Line(9) = {1, 8};
Line(10) = {7, 2};
Line(11) = {3, 6};
Line(12) = {5, 4};
Line(13) = {9, 10};
Line(14) = {10, 11};
Line(15) = {11, 12};
Line(16) = {12, 9};
Line(17) = {13, 14};
Line(18) = {14, 15};
Line(19) = {15, 16};
Line(20) = {16, 13};
Line(21) = {9, 16};
Line(22) = {15, 10};
Line(23) = {11, 14};
Line(24) = {13, 12};
Line(25) = {17, 18};
Line(26) = {18, 19};
Line(27) = {19, 20};
Line(28) = {20, 17};
Line(29) = {21, 22};
Line(30) = {22, 23};
Line(31) = {23, 24};
Line(32) = {24, 21};
Line(33) = {17, 24};
Line(34) = {23, 18};
Line(35) = {19, 22};
Line(36) = {21, 20};
Line(37) = {25, 26};
Line(38) = {26, 27};
Line(39) = {27, 28};
Line(40) = {28, 25};
Line(41) = {25, 17};
Line(42) = {18, 26};
Line(43) = {27, 19};
Line(44) = {20, 28};
Line(45) = {29, 30};
Line(46) = {30, 31};
Line(47) = {31, 32};
Line(48) = {32, 29};
Line(49) = {3, 33};
Line(50) = {33, 34};
Line(51) = {34, 4};
Line(52) = {29, 34};
Line(53) = {33, 30};
Line(54) = {31, 3};
Line(55) = {4, 32};
Line(56) = {35, 36};
Line(57) = {36, 14};
Line(58) = {13, 35};
Line(59) = {35, 29};
Line(60) = {30, 36};
Line(61) = {14, 31};
Line(62) = {32, 13};
Line(63) = {37, 17};
Line(64) = {20, 29};
Line(65) = {29, 37};
Line(66) = {34, 21};
Line(67) = {24, 1};
Line(68) = {1, 34};
Line(69) = {37, 1};
Line(70) = {18, 38};
Line(71) = {38, 30};
Line(72) = {30, 19};
Line(73) = {22, 33};
Line(74) = {33, 2};
Line(75) = {2, 23};
Line(76) = {2, 38};
Line(77) = {16, 25};
Line(78) = {28, 35};
Line(79) = {35, 16};
Line(80) = {16, 37};
Line(81) = {26, 15};
Line(82) = {15, 36};
Line(83) = {36, 27};
Line(84) = {38, 15};

// Surfaces

Line Loop(1) = {1, 2, 3, 4};
Plane Surface(1) = {1};
Line Loop(2) = {5, 6, 7, 8};
Plane Surface(2) = {2};
Line Loop(3) = {9, -7, 10, -1};
Plane Surface(3) = {3};
Line Loop(4) = {11, -5, 12, -3};
Plane Surface(4) = {4};
Line Loop(5) = {-10, -6, -11, -2};
Plane Surface(5) = {5};
Line Loop(6) = {-4, -12, -8, -9};
Plane Surface(6) = {6};
Line Loop(7) = {13, 14, 15, 16};
Plane Surface(7) = {7};
Line Loop(8) = {17, 18, 19, 20};
Plane Surface(8) = {8};
Line Loop(9) = {21, -19, 22, -13};
Plane Surface(9) = {9};
Line Loop(10) = {23, -17, 24, -15};
Plane Surface(10) = {10};
Line Loop(11) = {-22, -18, -23, -14};
Plane Surface(11) = {11};
Line Loop(12) = {-16, -24, -20, -21};
Plane Surface(12) = {12};
Line Loop(13) = {25, 26, 27, 28};
Plane Surface(13) = {13};
Line Loop(14) = {29, 30, 31, 32};
Plane Surface(14) = {14};
Line Loop(15) = {33, -31, 34, -25};
Plane Surface(15) = {15};
Line Loop(16) = {35, -29, 36, -27};
Plane Surface(16) = {16};
Line Loop(17) = {-34, -30, -35, -26};
Plane Surface(17) = {17};
Line Loop(18) = {-28, -36, -32, -33};
Plane Surface(18) = {18};
Line Loop(19) = {37, 38, 39, 40};
Plane Surface(19) = {19};
Line Loop(20) = {41, 25, 42, -37};
Plane Surface(20) = {20};
Line Loop(21) = {43, 27, 44, -39};
Plane Surface(21) = {21};
Line Loop(22) = {-42, 26, -43, -38};
Plane Surface(22) = {22};
Line Loop(23) = {-40, -44, 28, -41};
Plane Surface(23) = {23};
Line Loop(24) = {45, 46, 47, 48};
Plane Surface(24) = {24};
Line Loop(25) = {-3, 49, 50, 51};
Plane Surface(25) = {25};
Line Loop(26) = {52, -50, 53, -45};
Plane Surface(26) = {26};
Line Loop(27) = {54, 3, 55, -47};
Plane Surface(27) = {27};
Line Loop(28) = {-53, -49, -54, -46};
Plane Surface(28) = {28};
Line Loop(29) = {-48, -55, -51, -52};
Plane Surface(29) = {29};
Line Loop(30) = {56, 57, -17, 58};
Plane Surface(30) = {30};
Line Loop(31) = {59, 45, 60, -56};
Plane Surface(31) = {31};
Line Loop(32) = {61, 47, 62, 17};
Plane Surface(32) = {32};
Line Loop(33) = {-60, 46, -61, -57};
Plane Surface(33) = {33};
Line Loop(34) = {-58, -62, 48, -59};
Plane Surface(34) = {34};
Line Loop(35) = {63, -28, 64, 65};
Plane Surface(35) = {35};
Line Loop(36) = {66, -32, 67, 68};
Plane Surface(36) = {36};
Line Loop(37) = {69, -67, -33, -63};
Plane Surface(37) = {37};
Line Loop(38) = {-36, -66, -52, -64};
Plane Surface(38) = {38};
Line Loop(39) = {-65, 52, -68, -69};
Plane Surface(39) = {39};
Line Loop(40) = {70, 71, 72, -26};
Plane Surface(40) = {40};
Line Loop(41) = {73, 74, 75, -30};
Plane Surface(41) = {41};
Line Loop(42) = {-34, -75, 76, -70};
Plane Surface(42) = {42};
Line Loop(43) = {-53, -73, -35, -72};
Plane Surface(43) = {43};
Line Loop(44) = {-76, -74, 53, -71};
Plane Surface(44) = {44};
Line Loop(45) = {77, -40, 78, 79};
Plane Surface(45) = {45};
Line Loop(46) = {80, 63, -41, -77};
Plane Surface(46) = {46};
Line Loop(47) = {-44, 64, -59, -78};
Plane Surface(47) = {47};
Line Loop(48) = {-79, 59, 65, -80};
Plane Surface(48) = {48};
Line Loop(49) = {81, 82, 83, -38};
Plane Surface(49) = {49};
Line Loop(50) = {-42, 70, 84, -81};
Plane Surface(50) = {50};
Line Loop(51) = {-60, 72, -43, -83};
Plane Surface(51) = {51};
Line Loop(52) = {-84, 71, 60, -82};
Plane Surface(52) = {52};

// Volumes

Surface Loop(1) = {1, 2, 3, 4, 5, 6};
Volume(1) = {1};
Surface Loop(2) = {7, 8, 9, 10, 11, 12};
Volume(2) = {2};
Surface Loop(3) = {13, 14, 15, 16, 17, 18};
Volume(3) = {3};
Surface Loop(4) = {19, -13, 20, 21, 22, 23};
Volume(4) = {4};
Surface Loop(5) = {24, 25, 26, 27, 28, 29};
Volume(5) = {5};
Surface Loop(6) = {30, -24, 31, 32, 33, 34};
Volume(6) = {6};
Surface Loop(7) = {35, 36, 37, 38, -18, 39};
Volume(7) = {7};
Surface Loop(8) = {40, 41, 42, 43, 44, -17};
Volume(8) = {8};
Surface Loop(9) = {45, -35, 46, 47, -23, 48};
Volume(9) = {9};
Surface Loop(10) = {49, -40, 50, 51, 52, -22};
Volume(10) = {10};

Coherence;
